<?xml version="1.0" standalone="no"?><!DOCTYPE svg PUBLIC "-//W3C//DTD SVG 1.1//EN" "http://www.w3.org/Graphics/SVG/1.1/DTD/svg11.dtd"><svg t="1534340167524" class="icon" style="" viewBox="0 0 1024 1024" version="1.1" xmlns="http://www.w3.org/2000/svg" p-id="14140" xmlns:xlink="http://www.w3.org/1999/xlink" width="16" height="16"><defs><style type="text/css"></style></defs><path d="M34.013867 383.658667l459.588266 280.302933a35.328 35.328 0 0 0 36.829867 0L989.986133 383.658667a35.310933 35.310933 0 0 0 0-60.3648L530.397867 43.0592a35.396267 35.396267 0 0 0-36.795734 0L34.013867 323.293867a35.362133 35.362133 0 0 0 0 60.3648z" fill="#8a8a8a" p-id="14141"></path><path d="M953.8048 483.498667L512 752.896 70.1952 483.498667a34.133333 34.133333 0 1 0-35.5328 58.299733l459.5712 280.234667a34.235733 34.235733 0 0 0 35.5328 0l459.588267-280.234667a34.1504 34.1504 0 0 0-35.549867-58.299733z" fill="#8a8a8a" p-id="14142"></path><path d="M953.8048 642.577067L512 911.9744 70.1952 642.577067a34.133333 34.133333 0 1 0-35.5328 58.299733l459.5712 280.234667a34.235733 34.235733 0 0 0 35.5328 0l459.588267-280.234667a34.1504 34.1504 0 0 0-35.549867-58.299733z" fill="#8a8a8a" p-id="14143"></path></svg>