<?xml version="1.0" standalone="no"?><!DOCTYPE svg PUBLIC "-//W3C//DTD SVG 1.1//EN" "http://www.w3.org/Graphics/SVG/1.1/DTD/svg11.dtd"><svg t="1534345060597" class="icon" style="" viewBox="0 0 1024 1024" version="1.1" xmlns="http://www.w3.org/2000/svg" p-id="20833" xmlns:xlink="http://www.w3.org/1999/xlink" width="16" height="16"><defs><style type="text/css"></style></defs><path d="M68.974808 427.64381m24.803341 0l207.614172 0q24.803341 0 24.803341 24.803341l0 314.580304q0 24.803341-24.803341 24.803341l-207.614172 0q-24.803341 0-24.803341-24.803341l0-314.580304q0-24.803341 24.803341-24.803341Z" fill="#8a8a8a" p-id="20834"></path><path d="M383.196443 295.212178m24.803341 0l207.614173 0q24.803341 0 24.803341 24.803341l0 447.011936q0 24.803341-24.803341 24.803341l-207.614173 0q-24.803341 0-24.803341-24.803341l0-447.011936q0-24.803341 24.803341-24.803341Z" fill="#8a8a8a" p-id="20835"></path><path d="M697.390489 115.877677m24.803341 0l207.614172 0q24.803341 0 24.803341 24.803341l0 626.346437q0 24.803341-24.803341 24.803341l-207.614172 0q-24.803341 0-24.803341-24.803341l0-626.346437q0-24.803341 24.803341-24.803341Z" fill="#8a8a8a" p-id="20836"></path><path d="M3.172841 907.625704m0-24.803341l0 0q0-24.803341 24.803341-24.803341l968.047636 0q24.803341 0 24.803341 24.803341l0 0q0 24.803341-24.803341 24.803341l-968.047636 0q-24.803341 0-24.803341-24.803341Z" fill="#8a8a8a" p-id="20837"></path></svg>